<?xml version="1.0" standalone="no"?>
<!DOCTYPE svg PUBLIC "-//W3C//DTD SVG 20010904//EN"
 "http://www.w3.org/TR/2001/REC-SVG-20010904/DTD/svg10.dtd">
<svg version="1.0" xmlns="http://www.w3.org/2000/svg"
 width="400.000000pt" height="400.000000pt" viewBox="0 0 400.000000 400.000000"
 preserveAspectRatio="xMidYMid meet">

<g transform="translate(0.000000,400.000000) scale(0.100000,-0.100000)"
fill="#000000" stroke="none">
<path d="M1230 3533 c-21 -7 -40 -34 -40 -55 0 -10 24 -45 54 -77 30 -33 64
-78 76 -101 25 -48 50 -156 50 -215 0 -32 -119 -322 -529 -1285 l-530 -1245
199 -3 c234 -3 304 8 425 67 152 73 265 181 338 323 18 35 188 429 377 875
190 447 347 813 350 813 3 0 36 -75 74 -165 80 -190 124 -263 203 -335 72 -66
138 -104 238 -136 75 -25 95 -27 323 -32 206 -4 242 -3 242 10 0 19 -492 1176
-533 1251 -84 158 -266 279 -461 306 -78 11 -827 14 -856 4z"/>
<path d="M1911 1866 c-18 -22 -3 -43 47 -61 301 -113 560 -375 697 -705 81
-197 112 -247 205 -341 69 -69 102 -94 177 -131 137 -69 198 -79 445 -76 l207
3 -202 475 c-112 261 -220 501 -241 532 -90 137 -261 257 -422 298 -71 18
-112 20 -489 20 -338 0 -415 -2 -424 -14z"/>
</g>
</svg>
